<?xml version="1.0" encoding="UTF-8"?>
<svg width="18px" height="18px" viewBox="0 0 18 18" version="1.1" xmlns="http://www.w3.org/2000/svg" xmlns:xlink="http://www.w3.org/1999/xlink">
    <!-- Generator: Sketch 53.2 (72643) - https://sketchapp.com -->
    <title>listings</title>
    <desc>Created with Sketch.</desc>
    <g id="listings" stroke="none" stroke-width="1" fill="none" fill-rule="evenodd">
        <g id="icon-listings2" transform="translate(0.000000, 0.700000)" fill="#000000" fill-rule="nonzero">
            <path d="M6.0678733,5.09659091 C5.77140271,5.09659091 5.53846154,5.32953209 5.53846154,5.62600267 C5.53846154,5.92247326 5.77140271,6.15541444 6.0678733,6.15541444 C6.36434389,6.15541444 6.59728507,5.92247326 6.59728507,5.62600267 C6.59728507,5.35070856 6.36434389,5.09659091 6.0678733,5.09659091 Z M6.0678733,5.83776738 C5.96199095,5.83776738 5.87728507,5.7530615 5.87728507,5.64717914 C5.87728507,5.54129679 5.96199095,5.45659091 6.0678733,5.45659091 C6.17375566,5.45659091 6.25846154,5.54129679 6.25846154,5.64717914 C6.25846154,5.7530615 6.17375566,5.83776738 6.0678733,5.83776738 Z" id="Shape"></path>
            <path d="M15.1318681,5.6450784 C15.1318681,5.94120351 15.3648093,6.17387323 15.6612799,6.17387323 C15.9577505,6.17387323 16.1906917,5.94120351 16.1906917,5.6450784 C16.1906917,5.3489533 15.9577505,5.11628357 15.6612799,5.11628357 C15.3859858,5.09513178 15.1318681,5.3489533 15.1318681,5.6450784 Z M15.8730446,5.6450784 C15.8730446,5.75083737 15.7883387,5.83544454 15.6824564,5.83544454 C15.576574,5.83544454 15.4918681,5.75083737 15.4918681,5.6450784 C15.4918681,5.53931944 15.576574,5.45471226 15.6824564,5.45471226 C15.7883387,5.45471226 15.8730446,5.53931944 15.8730446,5.6450784 Z" id="Shape"></path>
            <path d="M17.7626374,3.03835227 L17.1098901,2.35227273 C17.0703297,2.31306818 17.0307692,2.29346591 16.9912088,2.29346591 L4.01538462,2.29346591 L4.01538462,0.823295455 C4.01538462,0.764488636 3.9956044,0.725284091 3.93626374,0.686079545 L2.94725275,0.0588068182 C2.88791209,0.0196022727 2.82857143,0.0196022727 2.76923077,0.0588068182 L1.78021978,0.686079545 C1.74065934,0.725284091 1.7010989,0.764488636 1.7010989,0.823295455 L1.7010989,2.29346591 L0.810989011,2.29346591 C0.771428571,2.29346591 0.731868132,2.31306818 0.692307692,2.35227273 L0.0593406593,3.03835227 C4.16333634e-17,3.09715909 4.16333634e-17,3.19517045 0.0593406593,3.25397727 L0.692307692,3.94005682 C0.731868132,3.97926136 0.771428571,3.99886364 0.810989011,3.99886364 L1.74065934,3.99886364 L1.74065934,17.0539773 C1.74065934,17.1519886 1.81978022,17.2107955 1.8989011,17.2107955 L3.85714286,17.2107955 C3.95604396,17.2107955 4.01538462,17.1323864 4.01538462,17.0539773 L4.01538462,3.99886364 L5.53846154,3.99886364 L5.53846154,4.46931818 L5.26153846,4.46931818 C4.84615385,4.46931818 4.52967033,4.80255682 4.52967033,5.19460227 L4.52967033,13.2903409 C4.52967033,13.7019886 4.86593407,14.015625 5.26153846,14.015625 L16.1802198,14.015625 C16.5956044,14.015625 16.9120879,13.6823864 16.9120879,13.2903409 L16.9120879,5.21420455 C16.9120879,4.80255682 16.5758242,4.48892045 16.1802198,4.48892045 L16.1208791,4.48892045 L16.1208791,4.01846591 L16.9912088,4.01846591 C17.0307692,4.01846591 17.0703297,3.99886364 17.1098901,3.95965909 L17.7428571,3.27357955 C17.821978,3.19517045 17.821978,3.09715909 17.7626374,3.03835227 Z M0.87032967,3.68522727 L0.375824176,3.15596591 L0.87032967,2.62670455 L1.72087912,2.62670455 L1.72087912,3.68522727 L0.87032967,3.68522727 L0.87032967,3.68522727 Z M3.6989011,16.8971591 L2.05714286,16.8971591 L2.05714286,3.97926136 L2.05714286,3.84204545 L2.05714286,2.45028409 L2.05714286,0.921306818 L2.88791209,0.392045455 L3.6989011,0.921306818 L3.6989011,2.45028409 L3.6989011,3.84204545 L3.6989011,16.8971591 L3.6989011,16.8971591 Z M6.19120879,3.99886364 L6.19120879,4.46931818 L5.87472527,4.46931818 L5.87472527,3.99886364 L6.19120879,3.99886364 Z M15.8043956,3.99886364 L15.8043956,4.46931818 L15.4879121,4.46931818 L15.4879121,3.99886364 L15.8043956,3.99886364 Z M15.1516484,4.46931818 L6.52747253,4.46931818 L6.52747253,3.99886364 L15.1516484,3.99886364 L15.1516484,4.46931818 Z M16.1802198,4.80255682 C16.4175824,4.80255682 16.5956044,4.97897727 16.5956044,5.21420455 L16.5956044,13.3099432 C16.5956044,13.5451705 16.4175824,13.7215909 16.1802198,13.7215909 L5.26153846,13.7215909 C5.02417582,13.7215909 4.84615385,13.5451705 4.84615385,13.3099432 L4.84615385,5.21420455 C4.84615385,4.97897727 5.02417582,4.80255682 5.26153846,4.80255682 L5.6967033,4.80255682 L6.34945055,4.80255682 L15.3098901,4.80255682 L15.9626374,4.80255682 L16.1802198,4.80255682 Z M16.9318681,3.68522727 L15.9626374,3.68522727 L15.3098901,3.68522727 L6.34945055,3.68522727 L5.6967033,3.68522727 L4.01538462,3.68522727 L4.01538462,2.62670455 L16.9120879,2.62670455 L17.4065934,3.15596591 L16.9318681,3.68522727 Z" id="Shape"></path>
        </g>
    </g>
</svg>